nColumns=28
nRows=47
DataType=double
version=3
OpenSimVersion=4.1
endheader
time	ground_force_1_vx	ground_force_1_vy	ground_force_1_vz	ground_force_1_px	ground_force_1_py	ground_force_1_pz	ground_force_1_mx	ground_force_1_my	ground_force_1_mz	ground_force_2_vx	ground_force_2_vy	ground_force_2_vz	ground_force_2_px	ground_force_2_py	ground_force_2_pz	ground_force_2_mx	ground_force_2_my	ground_force_2_mz	ground_force_3_vx	ground_force_3_vy	ground_force_3_vz	ground_force_3_px	ground_force_3_py	ground_force_3_pz	ground_force_3_mx	ground_force_3_my	ground_force_3_mz
4.05	0.258749	465.023	-6.77781	-0.280732	0.006	-0.420757	0	-6.89996	0	-8.55503	390.714	2.19453	-0.247979	0.006	-0.865535	0	9.09665	0	0	0	0	0	0	0	0	0	0
4.06	0.545566	463.042	-6.54145	-0.281428	0.006	-0.420973	0	-6.7911	0	-8.14789	389.355	1.9565	-0.249452	0.006	-0.865077	0	9.09022	0	0	0	0	0	0	0	0	0	0
4.07	0.926919	461.128	-6.30093	-0.282152	0.006	-0.421186	0	-6.6867	0	-7.67375	388.226	1.76897	-0.250951	0.006	-0.864625	0	9.07962	0	0	0	0	0	0	0	0	0	0
4.08	1.40948	459.31	-6.0555	-0.2829	0.006	-0.421394	0	-6.58701	0	-7.14555	387.325	1.63097	-0.252461	0.006	-0.864183	0	9.06255	0	0	0	0	0	0	0	0	0	0
4.09	1.98483	457.617	-5.81029	-0.283667	0.006	-0.421597	0	-6.4922	0	-6.58392	386.653	1.54181	-0.253965	0.006	-0.863756	0	9.03738	0	0	0	0	0	0	0	0	0	0
4.1	2.6323	456.069	-5.57353	-0.284446	0.006	-0.421793	0	-6.40232	0	-6.01171	386.209	1.49956	-0.255446	0.006	-0.863347	0	9.00312	0	0	0	0	0	0	0	0	0	0
4.11	3.32328	454.672	-5.35388	-0.28523	0.006	-0.421981	0	-6.31712	0	-5.44853	385.997	1.50052	-0.256891	0.006	-0.862957	0	8.95948	0	0	0	0	0	0	0	0	0	0
4.12	4.02671	453.435	-5.16018	-0.286012	0.006	-0.422162	0	-6.23616	0	-4.90633	386.016	1.53938	-0.258292	0.006	-0.862585	0	8.90683	0	0	0	0	0	0	0	0	0	0
4.13	4.7129	452.369	-5.00235	-0.286785	0.006	-0.422334	0	-6.15903	0	-4.39001	386.272	1.60965	-0.259642	0.006	-0.862228	0	8.84598	0	0	0	0	0	0	0	0	0	0
4.14	5.35396	451.501	-4.89202	-0.287544	0.006	-0.422498	0	-6.08548	0	-3.90156	386.771	1.70458	-0.260942	0.006	-0.861884	0	8.77815	0	0	0	0	0	0	0	0	0	0
4.15	5.92338	450.863	-4.84137	-0.288282	0.006	-0.422651	0	-6.0155	0	-3.44448	387.525	1.81864	-0.26219	0.006	-0.861549	0	8.70495	0	0	0	0	0	0	0	0	0	0
4.16	6.39745	450.495	-4.8613	-0.288992	0.006	-0.422796	0	-5.94938	0	-3.02624	388.546	1.94818	-0.263388	0.006	-0.861218	0	8.62808	0	0	0	0	0	0	0	0	0	0
4.17	6.75594	450.435	-4.9599	-0.289671	0.006	-0.42293	0	-5.88764	0	-2.65668	389.843	2.09197	-0.264534	0.006	-0.860892	0	8.54894	0	0	0	0	0	0	0	0	0	0
4.18	6.98325	450.711	-5.14048	-0.290313	0.006	-0.423055	0	-5.83072	0	-2.34409	391.419	2.25116	-0.265632	0.006	-0.860568	0	8.4686	0	0	0	0	0	0	0	0	0	0
4.19	7.07033	451.335	-5.40071	-0.290916	0.006	-0.423171	0	-5.77875	0	-2.09253	393.273	2.42798	-0.266685	0.006	-0.860248	0	8.38781	0	0	0	0	0	0	0	0	0	0
4.2	7.01758	452.296	-5.73444	-0.29148	0.006	-0.423278	0	-5.73147	0	-1.8987	395.397	2.62539	-0.267699	0.006	-0.859931	0	8.30693	0	0	0	0	0	0	0	0	0	0
4.21	6.83653	453.561	-6.13418	-0.292009	0.006	-0.423379	0	-5.68839	0	-1.75117	397.782	2.84755	-0.268678	0.006	-0.859618	0	8.22603	0	0	0	0	0	0	0	0	0	0
4.22	6.54856	455.088	-6.59176	-0.292506	0.006	-0.423474	0	-5.64881	0	-1.63229	400.419	3.09975	-0.269629	0.006	-0.859309	0	8.14481	0	0	0	0	0	0	0	0	0	0
4.23	6.18202	456.821	-7.09716	-0.292979	0.006	-0.423568	0	-5.6118	0	-1.52077	403.292	3.38781	-0.270558	0.006	-0.859006	0	8.06266	0	0	0	0	0	0	0	0	0	0
4.24	5.76979	458.716	-7.63844	-0.293433	0.006	-0.423663	0	-5.57641	0	-1.39475	406.38	3.71704	-0.27147	0.006	-0.858708	0	7.97879	0	0	0	0	0	0	0	0	0	0
4.25	5.34537	460.738	-8.20363	-0.293875	0.006	-0.42376	0	-5.54187	0	-1.23563	409.661	4.09156	-0.272371	0.006	-0.858414	0	7.89231	0	0	0	0	0	0	0	0	0	0
4.26	4.93939	462.875	-8.78217	-0.294311	0.006	-0.423861	0	-5.50776	0	-1.03031	413.117	4.51513	-0.273267	0.006	-0.858125	0	7.80236	0	0	0	0	0	0	0	0	0	0
4.27	4.57846	465.126	-9.36483	-0.294745	0.006	-0.423968	0	-5.47389	0	-0.770683	416.737	4.99255	-0.274162	0.006	-0.857839	0	7.70823	0	0	0	0	0	0	0	0	0	0
4.28	4.28462	467.49	-9.9435	-0.29518	0.006	-0.424081	0	-5.44021	0	-0.452423	420.509	5.52989	-0.275057	0.006	-0.857557	0	7.60919	0	0	0	0	0	0	0	0	0	0
4.29	4.07507	469.952	-10.5114	-0.295619	0.006	-0.424202	0	-5.40657	0	-0.0750559	424.422	6.1334	-0.275953	0.006	-0.857278	0	7.50438	0	0	0	0	0	0	0	0	0	0
4.3	3.9637	472.486	-11.0638	-0.296064	0.006	-0.424331	0	-5.37275	0	0.358713	428.467	6.80985	-0.276851	0.006	-0.857003	0	7.39306	0	0	0	0	0	0	0	0	0	0
4.31	3.96183	475.062	-11.6004	-0.296516	0.006	-0.42447	0	-5.33857	0	0.842799	432.643	7.56734	-0.277748	0.006	-0.856732	0	7.2747	0	0	0	0	0	0	0	0	0	0
4.32	4.07727	477.65	-12.1251	-0.296976	0.006	-0.424618	0	-5.30393	0	1.36687	436.943	8.41398	-0.278643	0.006	-0.856467	0	7.14895	0	0	0	0	0	0	0	0	0	0
4.33	4.31226	480.23	-12.6456	-0.297443	0.006	-0.424776	0	-5.26878	0	1.91636	441.353	9.35575	-0.279531	0.006	-0.856209	0	7.01554	0	0	0	0	0	0	0	0	0	0
4.34	4.66125	482.782	-13.1721	-0.297918	0.006	-0.424942	0	-5.233	0	2.47266	445.845	10.394	-0.280411	0.006	-0.855958	0	6.87408	0	0	0	0	0	0	0	0	0	0
4.35	5.11078	485.289	-13.7159	-0.298397	0.006	-0.425114	0	-5.19649	0	3.01578	450.367	11.5236	-0.281278	0.006	-0.855713	0	6.72422	0	0	0	0	0	0	0	0	0	0
4.36	5.64176	487.736	-14.2907	-0.29888	0.006	-0.425292	0	-5.15939	0	3.52772	454.861	12.7347	-0.282132	0.006	-0.855475	0	6.56595	0	0	0	0	0	0	0	0	0	0
4.37	6.23225	490.107	-14.9117	-0.299363	0.006	-0.425472	0	-5.1221	0	3.99387	459.261	14.0163	-0.282972	0.006	-0.855241	0	6.39978	0	0	0	0	0	0	0	0	0	0
4.38	6.86074	492.386	-15.5939	-0.299844	0.006	-0.425654	0	-5.08524	0	4.4037	463.503	15.3565	-0.283796	0.006	-0.85501	0	6.22673	0	0	0	0	0	0	0	0	0	0
4.39	7.50914	494.552	-16.3491	-0.30032	0.006	-0.425835	0	-5.04939	0	4.75107	467.514	16.7408	-0.284607	0.006	-0.85478	0	6.04815	0	0	0	0	0	0	0	0	0	0
4.4	8.16378	496.586	-17.1846	-0.300789	0.006	-0.426015	0	-5.01512	0	5.03366	471.214	18.1526	-0.285406	0.006	-0.854549	0	5.86561	0	0	0	0	0	0	0	0	0	0
4.41	8.81482	498.469	-18.1027	-0.30125	0.006	-0.426194	0	-4.98278	0	5.25494	474.524	19.5755	-0.286196	0.006	-0.854315	0	5.68088	0	0	0	0	0	0	0	0	0	0
4.42	9.45466	500.181	-19.1004	-0.301702	0.006	-0.426371	0	-4.9523	0	5.42727	477.374	20.9955	-0.286981	0.006	-0.854075	0	5.49605	0	0	0	0	0	0	0	0	0	0
4.43	10.0746	501.692	-20.1717	-0.302144	0.006	-0.426546	0	-4.92314	0	5.57082	479.713	22.4014	-0.287766	0.006	-0.853827	0	5.31342	0	0	0	0	0	0	0	0	0	0
4.44	10.6623	502.961	-21.3067	-0.302576	0.006	-0.426717	0	-4.89419	0	5.71022	481.513	23.7822	-0.288556	0.006	-0.853569	0	5.13523	0	0	0	0	0	0	0	0	0	0
4.45	11.2033	503.935	-22.4913	-0.302999	0.006	-0.426887	0	-4.86383	0	5.87173	482.763	25.1236	-0.289352	0.006	-0.853297	0	4.96359	0	0	0	0	0	0	0	0	0	0
4.46	11.6838	504.555	-23.7068	-0.303415	0.006	-0.427055	0	-4.82999	0	6.08003	483.462	26.4073	-0.29016	0.006	-0.85301	0	4.80028	0	0	0	0	0	0	0	0	0	0
4.47	12.0921	504.771	-24.932	-0.303825	0.006	-0.427223	0	-4.79048	0	6.35346	483.615	27.613	-0.290979	0.006	-0.852706	0	4.6465	0	0	0	0	0	0	0	0	0	0
4.48	12.42	504.534	-26.1438	-0.304231	0.006	-0.427393	0	-4.74308	0	6.70037	483.231	28.7217	-0.29181	0.006	-0.852384	0	4.50272	0	0	0	0	0	0	0	0	0	0
4.49	12.6638	503.806	-27.3165	-0.304636	0.006	-0.427564	0	-4.68566	0	7.11821	482.328	29.7206	-0.292651	0.006	-0.852047	0	4.36899	0	0	0	0	0	0	0	0	0	0
4.5	12.8231	502.555	-28.4248	-0.305041	0.006	-0.427738	0	-4.61661	0	7.59457	480.935	30.6059	-0.293498	0.006	-0.851695	0	4.24526	0	0	0	0	0	0	0	0	0	0
4.51	12.9003	500.761	-29.4458	-0.30545	0.006	-0.427913	0	-4.53492	0	8.11054	479.09	31.3834	-0.294347	0.006	-0.851332	0	4.13175	0	0	0	0	0	0	0	0	0	0
